<svg xmlns="http://www.w3.org/2000/svg" version="1.1" xmlns:xlink="http://www.w3.org/1999/xlink" xmlns:svgjs="http://svgjs.dev/svgjs" width="2000" height="353" viewBox="0 0 2000 353" class="fill-inherit" style="fill: #11253E"><g transform="matrix(1,0,0,1,-1.2121212121210192,-1.8536225294298845)"><svg viewBox="0 0 396 70" data-background-color="#ed2647" preserveAspectRatio="xMidYMid meet" height="353" width="2000" xmlns="http://www.w3.org/2000/svg" xmlns:xlink="http://www.w3.org/1999/xlink"><g id="tight-bounds" transform="matrix(1,0,0,1,0.23999999999995225,0.3675738726914801)"><svg viewBox="0 0 395.52 69.26485225461704" height="69.26485225461704" width="395.52"><g><svg viewBox="0 0 539.0385966971334 94.39833323160154" height="69.26485225461704" width="395.52"><g><rect width="5.416636891322956" height="94.39833323160154" x="123.92228207983409" y="0" opacity="1" stroke-width="0" stroke="transparent" fill-opacity="1" class="rect-yte-0" data-fill-palette-color="primary" rx="1%" id="yte-0" data-palette-color="#ffffff"></rect></g><g transform="matrix(1,0,0,1,143.51859669713338,0.23482172445671523)"><svg viewBox="0 0 395.52 93.92868978268811" height="93.92868978268811" width="395.52"><g id="textblocktransform"><svg viewBox="0 0 395.52 93.92868978268811" height="93.92868978268811" width="395.52" id="textblock"><g><svg viewBox="0 0 395.52 60.06403753865841" height="60.06403753865841" width="395.52"><g transform="matrix(1,0,0,1,0,0)"><svg width="395.52" viewBox="4.05 -34.85 234.39999999999998 35.6" height="60.06403753865841" data-palette-color="#ffffff"><path d="M23.25 0L4.05 0 4.05-34.85 22.25-34.85 22.25-29.4 10.3-29.4 10.3-21.25 19.8-21.25 19.8-15.95 10.3-15.95 10.3-5.65 23.25-5.65 23.25 0ZM36.95 0.75L36.95 0.75Q32.72 0.75 31.23-1.45 29.75-3.65 29.75-8.1L29.75-8.1 29.75-19.65 26.5-19.65 26.5-24.9 30-24.9 30.35-30.15 35.8-32.5 35.8-24.9 41.95-24.9 41.95-19.65 35.8-19.65 35.8-8.25Q35.8-6.08 36.41-5.24 37.02-4.4 38.1-4.4L38.1-4.4Q39.2-4.4 40.42-4.98 41.65-5.55 42.35-6.15L42.35-6.15 43.55-1.1Q42.77-0.55 41.53-0.14 40.3 0.28 39.03 0.51 37.77 0.75 36.95 0.75ZM58.3 0.65L58.3 0.65Q54.1 0.65 51.52-1.11 48.95-2.88 47.77-5.79 46.6-8.7 46.6-12.15L46.6-12.15Q46.6-15.78 47.93-18.81 49.27-21.85 51.86-23.68 54.45-25.5 58.2-25.5L58.2-25.5Q63.8-25.5 66.02-22.26 68.25-19.03 68.25-13.1L68.25-13.1Q68.25-12.58 68.22-11.78 68.2-10.98 68.15-10.4L68.15-10.4 53.15-10.4Q53.3-7.45 54.81-5.78 56.32-4.1 59.35-4.1L59.35-4.1Q60.9-4.1 62.67-4.79 64.45-5.48 65.3-6.45L65.3-6.45 67.3-1.7Q66.3-1.03 64.13-0.19 61.97 0.65 58.3 0.65ZM53.1-14.3L53.1-14.3 61.9-14.3Q61.9-16.93 61.43-18.31 60.97-19.7 60.17-20.23 59.37-20.75 58.35-20.75L58.35-20.75Q55.8-20.75 54.52-18.86 53.25-16.98 53.1-14.3ZM80.14 0L73.89 0 73.89-24.9 79.54-24.9 79.84-20.5Q80.24-21.48 81.08-22.58 81.92-23.68 83.41-24.44 84.89-25.2 87.24-25.2L87.24-25.2Q87.97-25.2 88.52-25.1 89.07-25 89.54-24.8L89.54-24.8 88.14-18.25Q87.34-19.05 85.69-19.05L85.69-19.05Q83.77-19.05 82.54-18.26 81.32-17.48 80.73-16.5 80.14-15.53 80.14-15L80.14-15 80.14 0ZM99.64 0L93.24 0 93.24-24.9 99.04-24.9 99.17-21.63Q100.14-23.13 101.89-24.31 103.64-25.5 106.49-25.5L106.49-25.5Q110.29-25.5 112.14-23.1 113.99-20.7 113.99-16.45L113.99-16.45 113.99 0 107.59 0 107.59-15.9Q107.59-17.98 106.72-19.26 105.84-20.55 104.04-20.55L104.04-20.55Q102.29-20.55 100.97-19.26 99.64-17.98 99.64-15.9L99.64-15.9 99.64 0ZM126.19 0.7L126.19 0.7Q123.89 0.7 122.38-0.33 120.86-1.35 120.13-3.05 119.39-4.75 119.39-6.8L119.39-6.8Q119.39-7.95 119.98-9.33 120.56-10.7 122.06-11.95 123.56-13.2 126.29-14 129.01-14.8 133.29-14.8L133.29-14.8 133.29-15.95Q133.29-17.8 132.4-19.03 131.51-20.25 128.84-20.25L128.84-20.25Q126.89-20.25 125.03-19.59 123.16-18.93 122.29-17.95L122.29-17.95 120.29-22.75Q121.79-23.78 124.3-24.64 126.81-25.5 129.89-25.5L129.89-25.5Q133.59-25.5 135.64-24.38 137.69-23.25 138.51-21.19 139.34-19.13 139.34-16.35L139.34-16.35 139.34 0 133.99 0 133.54-3.55Q130.94 0.7 126.19 0.7ZM128.84-4.1L128.84-4.1Q129.96-4.1 131.25-5.01 132.54-5.93 133.29-7.35L133.29-7.35 133.29-10.9Q133.04-10.95 132.75-10.95 132.46-10.95 132.09-10.95L132.09-10.95Q130.71-10.95 129.2-10.64 127.69-10.33 126.64-9.55 125.59-8.78 125.59-7.4L125.59-7.4Q125.59-5.6 126.39-4.85 127.19-4.1 128.84-4.1ZM162.66 0L145.91 0 145.91-34.85 152.26-34.85 152.26-5.5 162.66-5.5 162.66 0ZM177.56 0.5L177.56 0.5Q172.06 0.5 169.06-2.95 166.06-6.4 166.06-12.5L166.06-12.5Q166.06-18.65 169.16-22.08 172.26-25.5 177.76-25.5L177.76-25.5Q183.28-25.5 186.17-21.96 189.06-18.43 189.06-12.5L189.06-12.5Q189.06-6.58 186.07-3.04 183.08 0.5 177.56 0.5ZM177.66-4.5L177.66-4.5Q182.41-4.5 182.41-12.5L182.41-12.5Q182.41-20.55 177.66-20.55L177.66-20.55Q175.31-20.55 174.01-18.69 172.71-16.82 172.71-12.5L172.71-12.5Q172.71-8.2 174.01-6.35 175.31-4.5 177.66-4.5ZM205.41 0L200.96 0 190.86-24.9 197.86-24.9 202.16-12.45 203.26-8.35 204.26-12.45 208.41-24.9 215.01-24.9 205.41 0ZM228.5 0.65L228.5 0.65Q224.3 0.65 221.73-1.11 219.15-2.88 217.98-5.79 216.8-8.7 216.8-12.15L216.8-12.15Q216.8-15.78 218.14-18.81 219.48-21.85 222.07-23.68 224.65-25.5 228.4-25.5L228.4-25.5Q234-25.5 236.23-22.26 238.45-19.03 238.45-13.1L238.45-13.1Q238.45-12.58 238.43-11.78 238.4-10.98 238.35-10.4L238.35-10.4 223.35-10.4Q223.5-7.45 225.02-5.78 226.53-4.1 229.55-4.1L229.55-4.1Q231.1-4.1 232.88-4.79 234.65-5.48 235.5-6.45L235.5-6.45 237.5-1.7Q236.5-1.03 234.34-0.19 232.18 0.65 228.5 0.65ZM223.3-14.3L223.3-14.3 232.1-14.3Q232.1-16.93 231.64-18.31 231.18-19.7 230.38-20.23 229.58-20.75 228.55-20.75L228.55-20.75Q226-20.75 224.73-18.86 223.45-16.98 223.3-14.3Z" opacity="1" transform="matrix(1,0,0,1,0,0)" class="wordmark-text-0 fill-inherit" data-fill-palette-color="primary" id="text-0"></path></svg></g></svg></g><g transform="matrix(1,0,0,1,0,74.24371526463473)"><svg viewBox="0 0 232.209792 19.684974518053377" height="19.684974518053377" width="232.209792"><g transform="matrix(1,0,0,1,0,0)"><svg width="232.209792" viewBox="4 -37 573.25 48.6" height="19.684974518053377" data-palette-color="#ffffff"><path d="M8.5 0L4 0 4-26 8.35-26 8.35-21.65Q9.75-23.75 11.9-25.18 14.05-26.6 16.8-26.6L16.8-26.6Q19.9-26.6 21.88-25.1 23.85-23.6 24.65-21.1L24.65-21.1Q26.2-23.4 28.33-25 30.45-26.6 33.6-26.6L33.6-26.6Q37.85-26.6 39.93-23.93 42-21.25 42-16.95L42-16.95 42 0 37.5 0 37.5-16.6Q37.5-19.3 36.25-20.98 35-22.65 32.8-22.65L32.8-22.65Q30.55-22.65 28.63-20.98 26.7-19.3 25.25-17.05L25.25-17.05 25.25 0 20.75 0 20.75-16.6Q20.75-19.3 19.5-20.98 18.25-22.65 16.05-22.65L16.05-22.65Q13.85-22.65 11.9-21.03 9.95-19.4 8.5-17.2L8.5-17.2 8.5 0ZM59.7 0.6L59.7 0.6Q56.45 0.6 53.8-1.05 51.15-2.7 49.57-5.73 48-8.75 48-12.85L48-12.85Q48-16.75 49.57-19.85 51.15-22.95 53.92-24.78 56.7-26.6 60.3-26.6L60.3-26.6Q62.55-26.6 64.37-25.83 66.2-25.05 67.55-23.9L67.55-23.9 67.55-26 71.65-26 71.65-6.3Q71.65-4.4 72.57-3.83 73.5-3.25 74.6-3.25L74.6-3.25 73.65 0.25Q68.85 0.25 67.85-3.65L67.85-3.65Q66.7-2.05 64.72-0.73 62.75 0.6 59.7 0.6ZM60.7-3.4L60.7-3.4Q62.6-3.4 64.3-4.33 66-5.25 67.15-6.65L67.15-6.65 67.15-20.6Q65.8-21.55 64.17-22.13 62.55-22.7 60.75-22.7L60.75-22.7Q58.35-22.7 56.52-21.48 54.7-20.25 53.65-18.07 52.6-15.9 52.6-13L52.6-13Q52.6-10.2 53.65-8.03 54.7-5.85 56.55-4.63 58.4-3.4 60.7-3.4ZM101.64-2.5L98.55 0.5 85.09-13.35 85.09 0 80.59 0 80.59-37 85.09-37 85.09-15.85 96.84-26.5 99.44-23.65 89.39-14.75 101.64-2.5ZM115.79 0.6L115.79 0.6Q110.19 0.6 106.92-2.98 103.64-6.55 103.64-13L103.64-13Q103.64-16.9 105.12-19.98 106.59-23.05 109.24-24.83 111.89-26.6 115.39-26.6L115.39-26.6Q119.14-26.6 121.62-24.98 124.09-23.35 125.34-20.6 126.59-17.85 126.59-14.55L126.59-14.55Q126.59-12.8 126.44-11.15L126.44-11.15 108.24-11.15Q108.69-7.5 110.79-5.45 112.89-3.4 116.34-3.4L116.34-3.4Q118.59-3.4 120.39-3.88 122.19-4.35 123.84-5.1L123.84-5.1 124.89-1.25Q123.09-0.45 120.84 0.08 118.59 0.6 115.79 0.6ZM108.19-14.8L108.19-14.8 122.44-14.8Q122.44-18.6 120.54-20.65 118.64-22.7 115.29-22.7L115.29-22.7Q112.39-22.7 110.49-20.68 108.59-18.65 108.19-14.8ZM148.24 11.6L148.24 11.6Q146.74 11.6 145.61 11.3 144.49 11 143.84 10.6L143.84 10.6 144.84 6.85Q145.44 7.2 146.34 7.45 147.24 7.7 148.34 7.7L148.34 7.7Q150.44 7.7 152.09 6.35 153.74 5 155.24 1.05L155.24 1.05 156.39-1.95 153.99-1.95 143.84-24.8 147.84-26.6 157.54-4.95 165.09-26.4 169.24-24.8 159.69 1.3Q158.24 5.3 156.54 7.55 154.84 9.8 152.79 10.7 150.74 11.6 148.24 11.6ZM183.69 0.6L183.69 0.6Q179.99 0.6 177.04-1.13 174.09-2.85 172.41-5.93 170.74-9 170.74-13L170.74-13Q170.74-17.2 172.44-20.25 174.14-23.3 177.09-24.95 180.04-26.6 183.69-26.6L183.69-26.6Q187.34-26.6 190.26-24.95 193.19-23.3 194.91-20.28 196.64-17.25 196.64-13.1L196.64-13.1Q196.64-8.95 194.94-5.88 193.24-2.8 190.31-1.1 187.39 0.6 183.69 0.6ZM183.69-3.4L183.69-3.4Q187.64-3.4 189.84-6.08 192.04-8.75 192.04-13L192.04-13Q192.04-15.6 190.94-17.78 189.84-19.95 187.96-21.28 186.09-22.6 183.69-22.6L183.69-22.6Q179.74-22.6 177.54-20 175.34-17.4 175.34-13.1L175.34-13.1Q175.34-10.5 176.44-8.28 177.54-6.05 179.41-4.73 181.29-3.4 183.69-3.4ZM211.13 0.6L211.13 0.6Q208.88 0.6 206.88-0.35 204.88-1.3 203.63-3.43 202.38-5.55 202.38-9.1L202.38-9.1 202.38-26 206.88-26 206.88-9.7Q206.88-6.65 208.18-5.03 209.48-3.4 211.98-3.4L211.98-3.4Q214.03-3.4 215.96-4.23 217.88-5.05 219.38-6.45L219.38-6.45 219.38-26 223.88-26 223.88-6.75Q223.88-4.6 224.81-3.93 225.73-3.25 226.83-3.25L226.83-3.25 225.88 0.25Q221.23 0.25 220.13-3.45L220.13-3.45Q218.38-1.65 216.08-0.53 213.78 0.6 211.13 0.6ZM237.33 0L232.83 0 232.83-26 237.18-26 237.18-20.35Q237.83-22 238.93-23.43 240.03-24.85 241.68-25.73 243.33-26.6 245.53-26.6L245.53-26.6Q246.28-26.6 247.03-26.53 247.78-26.45 248.28-26.3L248.28-26.3 246.93-21.65Q245.98-22.05 244.68-22.05L244.68-22.05Q242.83-22.05 241.16-21 239.48-19.95 238.41-17.75 237.33-15.55 237.33-12.15L237.33-12.15 237.33 0ZM278.28 0.6L278.28 0.6Q274.58 0.6 271.8-1.13 269.03-2.85 267.53-5.93 266.03-9 266.03-13L266.03-13Q266.03-16.75 267.55-19.85 269.08-22.95 271.93-24.78 274.78-26.6 278.63-26.6L278.63-26.6Q280.83-26.6 282.5-26.2 284.18-25.8 285.73-25.05L285.73-25.05 284.38-21.25Q282.98-21.95 281.7-22.28 280.43-22.6 278.88-22.6L278.88-22.6Q275.38-22.6 273-20.08 270.63-17.55 270.63-13.1L270.63-13.1Q270.63-10.4 271.63-8.2 272.63-6 274.4-4.7 276.18-3.4 278.58-3.4L278.58-3.4Q280.48-3.4 281.83-3.83 283.18-4.25 284.73-5.05L284.73-5.05 286.13-1.25Q284.58-0.4 282.65 0.1 280.73 0.6 278.28 0.6ZM295.87 0L291.37 0 291.37-37 295.87-37 295.87-21.85Q297.27-23.9 299.42-25.25 301.57-26.6 304.47-26.6L304.47-26.6Q308.87-26.6 311.05-23.95 313.22-21.3 313.22-16.95L313.22-16.95 313.22 0 308.72 0 308.72-16.45Q308.72-19.25 307.42-20.95 306.12-22.65 303.77-22.65L303.77-22.65Q301.47-22.65 299.4-21.03 297.32-19.4 295.87-17.2L295.87-17.2 295.87 0ZM330.92 0.6L330.92 0.6Q327.67 0.6 325.02-1.05 322.37-2.7 320.8-5.73 319.22-8.75 319.22-12.85L319.22-12.85Q319.22-16.75 320.8-19.85 322.37-22.95 325.15-24.78 327.92-26.6 331.52-26.6L331.52-26.6Q333.77-26.6 335.6-25.83 337.42-25.05 338.77-23.9L338.77-23.9 338.77-26 342.87-26 342.87-6.3Q342.87-4.4 343.8-3.83 344.72-3.25 345.82-3.25L345.82-3.25 344.87 0.25Q340.07 0.25 339.07-3.65L339.07-3.65Q337.92-2.05 335.95-0.73 333.97 0.6 330.92 0.6ZM331.92-3.4L331.92-3.4Q333.82-3.4 335.52-4.33 337.22-5.25 338.37-6.65L338.37-6.65 338.37-20.6Q337.02-21.55 335.4-22.13 333.77-22.7 331.97-22.7L331.97-22.7Q329.57-22.7 327.75-21.48 325.92-20.25 324.87-18.07 323.82-15.9 323.82-13L323.82-13Q323.82-10.2 324.87-8.03 325.92-5.85 327.77-4.63 329.62-3.4 331.92-3.4ZM360.92 0.6L360.92 0.6Q357.17 0.6 354.99-1.88 352.82-4.35 352.82-8.95L352.82-8.95 352.82-21.15 348.32-21.15 348.32-25.05 352.92-25.05 353.87-33.25 357.32-33.25 357.32-25.05 364.52-25.05 364.52-21.15 357.32-21.15 357.32-8.6Q357.32-5.7 358.54-4.55 359.77-3.4 361.47-3.4L361.47-3.4Q362.72-3.4 363.84-3.8 364.97-4.2 365.92-4.75L365.92-4.75 367.17-1.15Q366.17-0.55 364.47 0.03 362.77 0.6 360.92 0.6ZM379.17 0.6L379.17 0.6Q376.22 0.6 373.84-0.15 371.47-0.9 369.92-2.1L369.92-2.1 371.82-5.85Q373.12-4.75 375.09-4.03 377.07-3.3 379.32-3.3L379.32-3.3Q382.12-3.3 383.54-4.23 384.97-5.15 384.97-6.6L384.97-6.6Q384.97-7.65 384.44-8.45 383.92-9.25 382.52-10.03 381.12-10.8 378.47-11.7L378.47-11.7Q374.82-12.95 372.99-14.68 371.17-16.4 371.17-19.45L371.17-19.45Q371.17-22.45 373.79-24.53 376.42-26.6 381.07-26.6L381.07-26.6Q383.57-26.6 385.52-26.08 387.47-25.55 389.02-24.75L389.02-24.75 387.77-21.05Q386.42-21.85 384.69-22.35 382.97-22.85 380.87-22.85L380.87-22.85Q378.27-22.85 376.92-21.8 375.57-20.75 375.57-19.5L375.57-19.5Q375.57-18.3 376.62-17.45 377.67-16.6 380.72-15.6L380.72-15.6Q385.67-13.95 387.62-11.95 389.57-9.95 389.57-6.95L389.57-6.95Q389.57-3.45 386.74-1.43 383.92 0.6 379.17 0.6ZM420.96 0.6L420.96 0.6Q415.36 0.6 412.09-2.98 408.81-6.55 408.81-13L408.81-13Q408.81-16.9 410.29-19.98 411.76-23.05 414.41-24.83 417.06-26.6 420.56-26.6L420.56-26.6Q424.31-26.6 426.79-24.98 429.26-23.35 430.51-20.6 431.76-17.85 431.76-14.55L431.76-14.55Q431.76-12.8 431.61-11.15L431.61-11.15 413.41-11.15Q413.86-7.5 415.96-5.45 418.06-3.4 421.51-3.4L421.51-3.4Q423.76-3.4 425.56-3.88 427.36-4.35 429.01-5.1L429.01-5.1 430.06-1.25Q428.26-0.45 426.01 0.08 423.76 0.6 420.96 0.6ZM413.36-14.8L413.36-14.8 427.61-14.8Q427.61-18.6 425.71-20.65 423.81-22.7 420.46-22.7L420.46-22.7Q417.56-22.7 415.66-20.68 413.76-18.65 413.36-14.8ZM446.86 0.6L446.86 0.6Q443.11 0.6 440.93-1.88 438.76-4.35 438.76-8.95L438.76-8.95 438.76-21.15 434.26-21.15 434.26-25.05 438.86-25.05 439.81-33.25 443.26-33.25 443.26-25.05 450.46-25.05 450.46-21.15 443.26-21.15 443.26-8.6Q443.26-5.7 444.48-4.55 445.71-3.4 447.41-3.4L447.41-3.4Q448.66-3.4 449.78-3.8 450.91-4.2 451.86-4.75L451.86-4.75 453.11-1.15Q452.11-0.55 450.41 0.03 448.71 0.6 446.86 0.6ZM467.01 0.6L467.01 0.6Q461.41 0.6 458.13-2.98 454.86-6.55 454.86-13L454.86-13Q454.86-16.9 456.33-19.98 457.81-23.05 460.46-24.83 463.11-26.6 466.61-26.6L466.61-26.6Q470.36-26.6 472.83-24.98 475.31-23.35 476.56-20.6 477.81-17.85 477.81-14.55L477.81-14.55Q477.81-12.8 477.66-11.15L477.66-11.15 459.46-11.15Q459.91-7.5 462.01-5.45 464.11-3.4 467.56-3.4L467.56-3.4Q469.81-3.4 471.61-3.88 473.41-4.35 475.06-5.1L475.06-5.1 476.11-1.25Q474.31-0.45 472.06 0.08 469.81 0.6 467.01 0.6ZM459.41-14.8L459.41-14.8 473.66-14.8Q473.66-18.6 471.76-20.65 469.86-22.7 466.51-22.7L466.51-22.7Q463.61-22.7 461.71-20.68 459.81-18.65 459.41-14.8ZM488.3 0L483.8 0 483.8-26 488.15-26 488.15-20.35Q488.8-22 489.9-23.43 491-24.85 492.65-25.73 494.3-26.6 496.5-26.6L496.5-26.6Q497.25-26.6 498-26.53 498.75-26.45 499.25-26.3L499.25-26.3 497.9-21.65Q496.95-22.05 495.65-22.05L495.65-22.05Q493.8-22.05 492.13-21 490.45-19.95 489.38-17.75 488.3-15.55 488.3-12.15L488.3-12.15 488.3 0ZM508.25 0L503.75 0 503.75-26 508.1-26 508.1-21.65Q509.5-23.75 511.68-25.18 513.85-26.6 516.85-26.6L516.85-26.6Q521.25-26.6 523.43-23.95 525.6-21.3 525.6-16.95L525.6-16.95 525.6 0 521.1 0 521.1-16.45Q521.1-19.25 519.78-20.95 518.45-22.65 516.1-22.65L516.1-22.65Q513.8-22.65 511.75-21.03 509.7-19.4 508.25-17.2L508.25-17.2 508.25 0ZM543.3 0.6L543.3 0.6Q540.05 0.6 537.4-1.05 534.75-2.7 533.17-5.73 531.6-8.75 531.6-12.85L531.6-12.85Q531.6-16.75 533.17-19.85 534.75-22.95 537.52-24.78 540.3-26.6 543.9-26.6L543.9-26.6Q546.15-26.6 547.97-25.83 549.8-25.05 551.15-23.9L551.15-23.9 551.15-26 555.25-26 555.25-6.3Q555.25-4.4 556.17-3.83 557.1-3.25 558.2-3.25L558.2-3.25 557.25 0.25Q552.45 0.25 551.45-3.65L551.45-3.65Q550.3-2.05 548.32-0.73 546.35 0.6 543.3 0.6ZM544.3-3.4L544.3-3.4Q546.2-3.4 547.9-4.33 549.6-5.25 550.75-6.65L550.75-6.65 550.75-20.6Q549.4-21.55 547.77-22.13 546.15-22.7 544.35-22.7L544.35-22.7Q541.95-22.7 540.12-21.48 538.3-20.25 537.25-18.07 536.2-15.9 536.2-13L536.2-13Q536.2-10.2 537.25-8.03 538.3-5.85 540.15-4.63 542-3.4 544.3-3.4ZM572.1 0.6L572.1 0.6Q569.8 0.6 567.95-0.28 566.1-1.15 565.02-3.1 563.95-5.05 563.95-8.15L563.95-8.15 563.95-37 568.45-37 568.45-8.6Q568.45-5.9 569.57-4.6 570.7-3.3 572.7-3.3L572.7-3.3Q573.65-3.3 574.57-3.53 575.5-3.75 576.15-4.05L576.15-4.05 577.25-0.4Q576.35 0 575.02 0.3 573.7 0.6 572.1 0.6Z" opacity="1" transform="matrix(1,0,0,1,0,0)" fill="inherit" class="slogan-text-1 fill-inherit" data-fill-palette-color="secondary" id="text-1"></path></svg></g></svg></g></svg></g></svg></g><g transform="matrix(1,0,0,1,0,0.23482172445671523)"><svg viewBox="0 0 109.74260435385777 93.92868978268811" height="93.92868978268811" width="109.74260435385777"><g><svg xmlns="http://www.w3.org/2000/svg" xmlns:xlink="http://www.w3.org/1999/xlink" version="1.1" x="0" y="0" viewBox="5.388820057660501 11.817372193436658 89.22261023760446 76.36562780656335" enable-background="new 0 0 100 100" xml:space="preserve" height="93.92868978268811" width="109.74260435385777" class="icon-icon-0 fill-inherit" data-fill-palette-color="accent" id="icon-0"><path d="M81.495 13.923C70.127 8.662 55.261 13.612 50.006 24.955 44.74 13.612 29.879 8.657 18.511 13.923 6.402 19.539 0.613 33.883 10.175 50.804 16.967 62.844 29.001 71.915 50.006 88.183 70.999 71.915 83.039 62.839 89.825 50.804 99.387 33.883 93.598 19.539 81.495 13.923" data-fill-palette-color="accent"></path></svg></g></svg></g></svg></g><defs></defs></svg><rect width="395.52" height="69.26485225461704" fill="none" stroke="none" visibility="hidden"></rect></g></svg></g></svg>