<svg version="1.2" xmlns="http://www.w3.org/2000/svg" viewBox="0 0 407 353" width="407" height="353">
	<title>EternaLoveLogo-svg</title>
	<style>
		.s0 { fill: #11253e } 
	</style>
	<g>
		<g>
			<g>
				<g>
					<g>
						<path class="s0" d="m462.9 0h12.7c2 0 3.7 1.7 3.7 3.7v341.9c0 2-1.7 3.7-3.7 3.7h-12.7c-2 0-3.7-1.7-3.7-3.7v-341.9c0-2 1.7-3.7 3.7-3.7z"/>
						<g>
							<g>
								<g>
									<g>
										<g>
											<path fill-rule="evenodd" class="s0" d="m651.9 218.4h-120v-217.5h113.8v34h-74.8v50.9h59.4v33.1h-59.4v64.3h81zm85.7 4.6q-26.5 0-35.8-13.7-9.2-13.7-9.2-41.5v-72.1h-20.4v-32.8h21.9l2.2-32.8 34.1-14.6v47.4h38.4v32.8h-38.4v71.2q0 13.5 3.8 18.8 3.8 5.2 10.6 5.2 6.8 0 14.5-3.6 7.7-3.6 12-7.3l7.6 31.5q-4.9 3.4-12.7 6-7.7 2.6-15.6 4.1-7.9 1.4-13 1.4zm133.5-0.6q-26.3 0-42.4-11-16.1-11-23.5-29.2-7.3-18.1-7.3-39.7 0-22.6 8.3-41.6 8.4-18.9 24.6-30.4 16.2-11.3 39.7-11.3 35 0 48.9 20.2 13.9 20.2 13.9 57.2 0 3.2-0.2 8.2-0.1 5-0.4 8.6h-93.8q0.9 18.5 10.4 28.9 9.4 10.5 28.3 10.5 9.7 0 20.8-4.3 11.1-4.3 16.5-10.4l12.5 29.7q-6.3 4.1-19.9 9.4-13.5 5.2-36.4 5.2zm-32.5-93.3h55q0-16.4-2.9-25-2.9-8.7-7.9-12-5-3.3-11.4-3.3-15.9 0-24 11.8-7.9 11.8-8.8 28.5zm169.1 89.3h-39.1v-155.5h35.3l1.9 27.5q2.5-6.1 7.7-13 5.3-6.9 14.6-11.6 9.3-4.8 23.9-4.8 4.6 0 8.1 0.7 3.4 0.6 6.3 1.8l-8.7 40.9q-5-5-15.3-5-12.1 0-19.7 5-7.7 4.8-11.4 11-3.6 6-3.6 9.3zm121.9 0h-40v-155.4h36.2l0.8 20.4q6.1-9.4 17.1-16.7 10.9-7.5 28.7-7.5 23.8 0 35.3 15 11.6 15 11.6 41.5v102.7h-40v-99.2q0-13-5.4-21-5.5-8.1-16.8-8.1-10.9 0-19.2 8.1-8.3 8-8.3 21zm166 4.3q-14.4 0-23.8-6.4-9.5-6.4-14.1-17-4.6-10.6-4.6-23.4 0-7.2 3.7-15.8 3.6-8.5 13-16.3 9.4-7.8 26.4-12.8 17-5 43.8-5v-7.2q0-11.6-5.6-19.2-5.5-7.7-22.2-7.7-12.2 0-23.8 4.2-11.7 4.1-17.2 10.2l-12.5-30q9.4-6.4 25.1-11.8 15.7-5.3 34.9-5.3 23.2 0 36 7 12.8 7 17.9 19.9 5.2 12.8 5.2 30.2v102.1h-33.4l-2.8-22.2q-16.3 26.5-46 26.5zm16.6-29.9q7 0 15-5.7 8.1-5.8 12.8-14.6v-22.2q-1.6-0.3-3.4-0.3-1.8 0-4.1 0-8.6 0-18.1 1.9-9.4 2-16 6.8-6.5 4.8-6.5 13.5 0 11.2 5 15.9 5 4.7 15.3 4.7zm211.5 25.6h-104.8v-217.6h39.7v183.2h65.1zm93.1 3.1q-34.4 0-53.1-21.5-18.8-21.5-18.8-59.6 0-38.4 19.4-59.8 19.4-21.4 53.8-21.4 34.5 0 52.6 22.1 18 22.1 18 59.1 0 36.9-18.7 59-18.7 22.1-53.2 22.1zm0.7-31.2q29.7 0 29.7-49.9 0-50.3-29.7-50.3-14.7 0-22.9 11.6-8.1 11.7-8.1 38.7 0 26.8 8.1 38.4 8.2 11.5 22.9 11.5zm173.5 28.1h-27.9l-63.1-155.4h43.8l26.9 77.7 6.8 25.6 6.3-25.6 25.9-77.7h41.3zm144.4 4q-26.3 0-42.3-11-16.2-11-23.5-29.2-7.4-18.1-7.4-39.7 0-22.6 8.4-41.6 8.4-18.9 24.6-30.4 16.1-11.3 39.6-11.3 35 0 48.9 20.2 13.9 20.2 13.9 57.2 0 3.2-0.1 8.2-0.2 5-0.5 8.6h-93.8q0.9 18.5 10.4 28.9 9.5 10.5 28.4 10.5 9.6 0 20.8-4.3 11-4.3 16.4-10.4l12.5 29.7q-6.3 4.1-19.8 9.4-13.5 5.2-36.5 5.2zm-32.5-93.3h55q0-16.4-2.9-25-2.9-8.7-7.9-12-5-3.3-11.4-3.3-15.9 0-23.9 11.8-8 11.8-8.9 28.5z"/>
										</g>
									</g>
									<g>
										<g>
											<g>
												<path fill-rule="evenodd" class="s0" d="m538.6 331h-6.7v-38.9h6.5v6.5q2.1-3.2 5.3-5.3 3.2-2.1 7.4-2.1 4.6 0 7.6 2.2 3 2.3 4.2 6 2.3-3.4 5.5-5.8 3.2-2.4 7.9-2.4 6.4 0 9.5 4 3.1 4 3.1 10.4v25.4h-6.8v-24.8q0-4.1-1.8-6.6-1.9-2.5-5.2-2.5-3.4 0-6.3 2.5-2.9 2.5-5 5.9v25.5h-6.8v-24.8q0-4.1-1.9-6.6-1.9-2.5-5.2-2.5-3.3 0-6.2 2.4-2.9 2.5-5.1 5.8zm76.9 0.9q-4.9 0-8.9-2.5-4-2.5-6.3-7-2.4-4.5-2.4-10.7 0-5.8 2.4-10.5 2.3-4.6 6.5-7.4 4.2-2.7 9.6-2.7 3.3 0 6.1 1.2 2.7 1.1 4.8 2.8v-3.1h6.1v29.5q0 2.9 1.4 3.7 1.4 0.9 3 0.9l-1.4 5.2q-7.2 0-8.7-5.8-1.7 2.4-4.7 4.4-3 2-7.5 2zm1.5-6q2.8 0 5.4-1.4 2.5-1.4 4.3-3.5v-20.9q-2.1-1.4-4.5-2.3-2.5-0.9-5.2-0.9-3.6 0-6.3 1.9-2.7 1.8-4.3 5.1-1.6 3.2-1.6 7.6 0 4.2 1.6 7.4 1.6 3.3 4.3 5.1 2.8 1.9 6.3 1.9zm61.4 1.3l-4.6 4.5-20.2-20.7v20h-6.8v-55.5h6.8v31.7l17.6-16 3.9 4.3-15.1 13.4zm21.3 4.6q-8.4 0-13.3-5.4-5-5.3-5-15 0-5.8 2.3-10.4 2.2-4.6 6.1-7.3 4-2.7 9.3-2.7 5.6 0 9.3 2.5 3.7 2.4 5.6 6.5 1.9 4.2 1.9 9.1 0 2.6-0.2 5.1h-27.4q0.7 5.5 3.9 8.5 3.1 3.1 8.3 3.1 3.4 0 6.1-0.7 2.7-0.7 5.2-1.8l1.5 5.7q-2.7 1.2-6 2-3.4 0.8-7.6 0.8zm-11.4-23.1h21.4q0-5.7-2.9-8.7-2.8-3.1-7.9-3.1-4.3 0-7.2 3-2.8 3.1-3.4 8.8zm60.1 39.6q-2.3 0-4-0.5-1.6-0.4-2.6-1l1.5-5.6q0.9 0.5 2.2 0.9 1.4 0.3 3 0.3 3.2 0 5.7-2 2.4-2 4.7-7.9l1.7-4.5h-3.6l-15.2-34.3 6-2.7 14.5 32.5 11.4-32.2 6.2 2.4-14.3 39.2q-2.2 5.9-4.8 9.3-2.5 3.4-5.6 4.7-3.1 1.4-6.8 1.4zm53.2-16.5q-5.5 0-10-2.6-4.4-2.6-6.9-7.2-2.5-4.6-2.5-10.6 0-6.3 2.5-10.8 2.6-4.6 7-7.1 4.4-2.5 9.9-2.5 5.5 0 9.9 2.5 4.4 2.5 6.9 7 2.6 4.6 2.6 10.8 0 6.2-2.5 10.8-2.6 4.6-7 7.2-4.3 2.5-9.9 2.5zm0-6q5.9 0 9.2-4 3.3-4 3.3-10.4 0-3.9-1.6-7.1-1.7-3.3-4.5-5.3-2.8-2-6.4-2-5.9 0-9.2 3.9-3.3 3.9-3.3 10.4 0 3.9 1.6 7.2 1.7 3.3 4.5 5.3 2.8 2 6.4 2zm41.2 6q-3.4 0-6.4-1.4-3-1.4-4.9-4.6-1.8-3.2-1.8-8.5v-25.4h6.7v24.5q0 4.5 2 7 1.9 2.4 5.7 2.4 3 0 5.9-1.2 2.9-1.3 5.2-3.4v-29.3h6.7v28.9q0 3.2 1.4 4.2 1.4 1 3.1 1l-1.5 5.3q-6.9 0-8.6-5.6-2.6 2.7-6.1 4.4-3.4 1.7-7.4 1.7zm39.3-0.9h-6.7v-39h6.5v8.5q1-2.5 2.6-4.6 1.7-2.1 4.2-3.5 2.4-1.3 5.7-1.3 1.2 0 2.3 0.1 1.1 0.2 1.9 0.4l-2.1 7q-1.4-0.6-3.3-0.6-2.8 0-5.3 1.5-2.5 1.6-4.2 4.9-1.6 3.3-1.6 8.4zm61.5 0.9q-5.6 0-9.7-2.6-4.2-2.6-6.4-7.2-2.3-4.6-2.3-10.6 0-5.6 2.3-10.3 2.3-4.6 6.6-7.3 4.2-2.8 10-2.8 3.3 0 5.8 0.6 2.6 0.6 4.9 1.8l-2 5.6q-2.1-1-4.1-1.5-1.9-0.5-4.2-0.5-5.3 0-8.8 3.8-3.6 3.8-3.6 10.5 0 4 1.5 7.3 1.5 3.3 4.2 5.3 2.6 1.9 6.2 1.9 2.9 0 4.9-0.6 2.1-0.7 4.4-1.9l2.1 5.7q-2.3 1.3-5.2 2-2.9 0.8-6.6 0.8zm26.4-0.9h-6.8v-55.5h6.8v22.7q2.1-3 5.3-5 3.3-2.1 7.6-2.1 6.6 0 9.9 4 3.2 4 3.2 10.5v25.4h-6.7v-24.7q0-4.2-2-6.7-1.9-2.6-5.4-2.6-3.5 0-6.6 2.5-3.1 2.4-5.3 5.7zm52.6 0.9q-4.9 0-8.8-2.5-4-2.4-6.4-7-2.3-4.5-2.3-10.6 0-5.9 2.3-10.5 2.4-4.7 6.6-7.4 4.1-2.7 9.5-2.7 3.4 0 6.1 1.1 2.8 1.2 4.8 2.9v-3.1h6.2v29.5q0 2.8 1.4 3.7 1.3 0.8 3 0.8l-1.4 5.3q-7.2 0-8.7-5.9-1.8 2.4-4.7 4.4-3 2-7.6 2zm1.5-6q2.9 0 5.4-1.4 2.6-1.4 4.3-3.4v-21q-2-1.4-4.5-2.2-2.4-0.9-5.1-0.9-3.6 0-6.3 1.8-2.8 1.9-4.4 5.1-1.5 3.3-1.5 7.6 0 4.2 1.5 7.5 1.6 3.3 4.4 5.1 2.8 1.8 6.2 1.8zm43.6 6q-5.7 0-9-3.7-3.2-3.7-3.2-10.6v-18.3h-6.8v-5.8h6.9l1.5-12.3h5.1v12.3h10.9v5.8h-10.9v18.8q0 4.4 1.9 6.1 1.8 1.7 4.4 1.7 1.9 0 3.5-0.6 1.7-0.6 3.2-1.4l1.8 5.4q-1.5 0.9-4 1.8-2.6 0.8-5.3 0.8zm27.3 0q-4.4 0-8-1.1-3.5-1.1-5.8-2.9l2.8-5.6q2 1.6 4.9 2.7 3 1.1 6.4 1.1 4.2 0 6.3-1.4 2.2-1.4 2.2-3.6 0-1.5-0.8-2.7-0.8-1.2-2.9-2.4-2.1-1.2-6.1-2.5-5.5-1.9-8.2-4.5-2.8-2.6-2.8-7.1 0-4.5 4-7.6 3.9-3.1 10.9-3.1 3.8 0 6.7 0.7 2.9 0.8 5.2 2l-1.8 5.6q-2.1-1.2-4.7-2-2.5-0.7-5.7-0.7-3.9 0-5.9 1.5-2.1 1.6-2.1 3.5 0 1.8 1.6 3.1 1.6 1.2 6.2 2.7 7.4 2.5 10.3 5.5 3 3 3 7.5 0 5.2-4.3 8.3-4.2 3-11.4 3zm62.8 0q-8.4 0-13.3-5.3-5-5.4-5-15.1 0-5.8 2.3-10.4 2.2-4.6 6.1-7.3 4-2.6 9.3-2.6 5.6 0 9.3 2.4 3.7 2.4 5.6 6.5 1.9 4.2 1.9 9.1 0 2.6-0.2 5.1h-27.4q0.7 5.5 3.9 8.5 3.1 3.1 8.3 3.1 3.4 0 6.1-0.7 2.7-0.7 5.2-1.8l1.5 5.7q-2.7 1.2-6 2-3.4 0.8-7.6 0.8zm-11.4-23.1h21.4q0-5.7-2.9-8.7-2.8-3.1-7.9-3.1-4.3 0-7.2 3-2.8 3.1-3.4 8.8zm50.3 23.1q-5.7 0-8.9-3.7-3.3-3.7-3.3-10.6v-18.3h-6.8v-5.8h6.9l1.5-12.3h5.2v12.3h10.8v5.8h-10.8v18.8q0 4.4 1.8 6.1 1.8 1.7 4.4 1.7 1.9 0 3.5-0.6 1.7-0.6 3.2-1.4l1.8 5.4q-1.5 0.9-4 1.8-2.6 0.8-5.3 0.8zm30.2 0q-8.4 0-13.3-5.3-4.9-5.4-4.9-15.1 0-5.8 2.2-10.4 2.2-4.6 6.2-7.3 4-2.6 9.2-2.6 5.6 0 9.3 2.4 3.8 2.4 5.6 6.5 1.9 4.2 1.9 9.1 0 2.6-0.2 5.1h-27.3q0.6 5.5 3.8 8.5 3.2 3.1 8.3 3.1 3.4 0 6.1-0.7 2.7-0.7 5.2-1.8l1.6 5.7q-2.7 1.2-6.1 2-3.4 0.8-7.6 0.8zm-11.4-23.1h21.4q0-5.7-2.9-8.7-2.8-3.1-7.8-3.1-4.4 0-7.2 3-2.9 3.1-3.5 8.8zm43.4 22.2h-6.8v-38.9h6.5v8.4q1-2.5 2.7-4.6 1.6-2.1 4.1-3.4 2.5-1.3 5.8-1.3 1.1 0 2.2 0.1 1.2 0.1 1.9 0.3l-2 7q-1.4-0.6-3.4-0.6-2.8 0-5.3 1.5-2.5 1.6-4.1 4.9-1.6 3.3-1.6 8.4zm29.9 0h-6.7v-39h6.5v6.6q2.1-3.2 5.4-5.3 3.2-2.2 7.7-2.2 6.6 0 9.9 4 3.3 4 3.3 10.5v25.4h-6.8v-24.6q0-4.2-2-6.8-2-2.5-5.5-2.5-3.5 0-6.5 2.4-3.1 2.4-5.3 5.7zm52.6 0.9q-4.9 0-8.8-2.4-4-2.5-6.4-7.1-2.3-4.5-2.3-10.6 0-5.9 2.3-10.5 2.4-4.7 6.6-7.4 4.1-2.7 9.5-2.7 3.4 0 6.1 1.1 2.8 1.2 4.8 2.9v-3.1h6.2v29.5q0 2.8 1.3 3.7 1.4 0.9 3.1 0.9l-1.4 5.2q-7.2 0-8.7-5.8-1.8 2.4-4.7 4.3-3 2-7.6 2zm1.5-6q2.9 0 5.4-1.4 2.6-1.3 4.3-3.4v-20.9q-2-1.5-4.5-2.3-2.4-0.9-5.1-0.9-3.6 0-6.3 1.8-2.8 1.9-4.4 5.1-1.5 3.3-1.5 7.6 0 4.2 1.5 7.5 1.6 3.3 4.4 5.1 2.8 1.8 6.2 1.8zm41.8 6q-3.5 0-6.3-1.3-2.7-1.3-4.4-4.2-1.6-2.9-1.6-7.6v-43.2h6.8v42.5q0 4.1 1.7 6 1.7 2 4.7 2 1.4 0 2.8-0.4 1.4-0.3 2.3-0.7l1.7 5.4q-1.4 0.6-3.4 1.1-1.9 0.4-4.3 0.4z"/>
											</g>
										</g>
									</g>
								</g>
							</g>
						</g>
						<g>
							<g>
								<g>
									<path class="s0" d="m346.9 10.5c-51.8-24-119.6-1.5-143.5 50.2-24-51.7-91.8-74.2-143.6-50.2-55.2 25.5-81.6 90.8-38 167.8 31 54.8 85.8 96.1 181.6 170.1 95.7-74 150.5-115.3 181.5-170.1 43.6-77 17.2-142.3-38-167.8z"/>
								</g>
							</g>
						</g>
					</g>
				</g>
			</g>
		</g>
	</g>
</svg>