<svg xmlns="http://www.w3.org/2000/svg" width="2000" height="353" fill="#ffffff" xmlns:v="https://vecta.io/nano"><g transform="translate(-1.212 -1.854)"><svg viewBox="0 0 396 70" preserveAspectRatio="xMidYMid meet" height="353" width="2000"><g transform="translate(.24 .368)"><svg height="69.265" width="395.52"><svg viewBox="0 0 539.039 94.398" height="69.265" width="395.52"><rect width="5.417" height="94.398" x="123.922" rx="1%"/><g transform="translate(143.519 .235)"><svg height="93.929" width="395.52"><svg height="93.929" width="395.52"><svg height="60.064" width="395.52"><svg width="395.52" viewBox="4.05 -34.85 234.4 35.6" height="60.064"><path d="M23.25 0H4.05v-34.85h18.2v5.45H10.3v8.15h9.5v5.3h-9.5v10.3h12.95V0zm13.7.75h0q-4.23 0-5.72-2.2-1.48-2.2-1.48-6.65h0v-11.55H26.5v-5.25H30l.35-5.25 5.45-2.35v7.6h6.15v5.25H35.8v11.4q0 2.17.61 3.01.61.84 1.69.84h0q1.1 0 2.32-.58 1.23-.57 1.93-1.17h0l1.2 5.05q-.78.55-2.02.96-1.23.42-2.5.65-1.26.24-2.08.24zM58.3.65h0q-4.2 0-6.78-1.76-2.57-1.77-3.75-4.68-1.17-2.91-1.17-6.36h0q0-3.63 1.33-6.66 1.34-3.04 3.93-4.87 2.59-1.82 6.34-1.82h0q5.6 0 7.82 3.24 2.23 3.23 2.23 9.16h0q0 .52-.03 1.32-.02.8-.07 1.38h0-15q.15 2.95 1.66 4.62 1.51 1.68 4.54 1.68h0q1.55 0 3.32-.69 1.78-.69 2.63-1.66h0l2 4.75q-1 .67-3.17 1.51-2.16.84-5.83.84zM53.1-14.3h0 8.8q0-2.63-.47-4.01-.46-1.39-1.26-1.92-.8-.52-1.82-.52h0q-2.55 0-3.83 1.89-1.27 1.88-1.42 4.56zM80.14 0h-6.25v-24.9h5.65l.3 4.4q.4-.98 1.24-2.08.84-1.1 2.33-1.86 1.48-.76 3.83-.76h0q.73 0 1.28.1.55.1 1.02.3h0l-1.4 6.55q-.8-.8-2.45-.8h0q-1.92 0-3.15.79-1.22.78-1.81 1.76-.59.97-.59 1.5h0V0zm19.5 0h-6.4v-24.9h5.8l.13 3.27q.97-1.5 2.72-2.68 1.75-1.19 4.6-1.19h0q3.8 0 5.65 2.4 1.85 2.4 1.85 6.65h0V0h-6.4v-15.9q0-2.08-.87-3.36-.88-1.29-2.68-1.29h0q-1.75 0-3.07 1.29-1.33 1.28-1.33 3.36h0V0zm26.55.7h0q-2.3 0-3.81-1.03-1.52-1.02-2.25-2.72-.74-1.7-.74-3.75h0q0-1.15.59-2.53.58-1.37 2.08-2.62 1.5-1.25 4.23-2.05 2.72-.8 7-.8h0v-1.15q0-1.85-.89-3.08-.89-1.22-3.56-1.22h0q-1.95 0-3.81.66-1.87.66-2.74 1.64h0l-2-4.8q1.5-1.03 4.01-1.89 2.51-.86 5.59-.86h0q3.7 0 5.75 1.12 2.05 1.13 2.87 3.19.83 2.06.83 4.84h0V0h-5.35l-.45-3.55Q130.94.7 126.19.7zm2.65-4.8h0q1.12 0 2.41-.91 1.29-.92 2.04-2.34h0v-3.55q-.25-.05-.54-.05-.29 0-.66 0h0q-1.38 0-2.89.31-1.51.31-2.56 1.09-1.05.77-1.05 2.15h0q0 1.8.8 2.55.8.75 2.45.75zM162.66 0h-16.75v-34.85h6.35V-5.5h10.4V0zm14.9.5h0q-5.5 0-8.5-3.45-3-3.45-3-9.55h0q0-6.15 3.1-9.58 3.1-3.42 8.6-3.42h0q5.52 0 8.41 3.54 2.89 3.53 2.89 9.46h0q0 5.92-2.99 9.46Q183.08.5 177.56.5zm.1-5h0q4.75 0 4.75-8h0q0-8.05-4.75-8.05h0q-2.35 0-3.65 1.86-1.3 1.87-1.3 6.19h0q0 4.3 1.3 6.15 1.3 1.85 3.65 1.85zM205.41 0h-4.45l-10.1-24.9h7l4.3 12.45 1.1 4.1 1-4.1 4.15-12.45h6.6L205.41 0zm23.09.65h0q-4.2 0-6.77-1.76-2.58-1.77-3.75-4.68-1.18-2.91-1.18-6.36h0q0-3.63 1.34-6.66 1.34-3.04 3.93-4.87 2.58-1.82 6.33-1.82h0q5.6 0 7.83 3.24 2.22 3.23 2.22 9.16h0q0 .52-.02 1.32-.03.8-.08 1.38h0-15q.15 2.95 1.67 4.62 1.51 1.68 4.53 1.68h0q1.55 0 3.33-.69 1.77-.69 2.62-1.66h0l2 4.75q-1 .67-3.16 1.51-2.16.84-5.84.84zm-5.2-14.95h0 8.8q0-2.63-.46-4.01-.46-1.39-1.26-1.92-.8-.52-1.83-.52h0q-2.55 0-3.82 1.89-1.28 1.88-1.43 4.56z"/></svg></svg><g transform="translate(0 74.244)"><svg height="19.685" width="232.21"><svg width="232.21" viewBox="4 -37 573.25 48.6" height="19.685"><path d="M8.5 0H4v-26h4.35v4.35q1.4-2.1 3.55-3.53 2.15-1.42 4.9-1.42h0q3.1 0 5.08 1.5 1.97 1.5 2.77 4h0q1.55-2.3 3.68-3.9 2.12-1.6 5.27-1.6h0q4.25 0 6.33 2.67Q42-21.25 42-16.95h0V0h-4.5v-16.6q0-2.7-1.25-4.38-1.25-1.67-3.45-1.67h0q-2.25 0-4.17 1.67-1.93 1.68-3.38 3.93h0V0h-4.5v-16.6q0-2.7-1.25-4.38-1.25-1.67-3.45-1.67h0q-2.2 0-4.15 1.62-1.95 1.63-3.4 3.83h0V0zm51.2.6h0q-3.25 0-5.9-1.65-2.65-1.65-4.23-4.68Q48-8.75 48-12.85h0q0-3.9 1.57-7 1.58-3.1 4.35-4.93 2.78-1.82 6.38-1.82h0q2.25 0 4.07.77 1.83.78 3.18 1.93h0V-26h4.1v19.7q0 1.9.92 2.47.93.58 2.03.58h0l-.95 3.5q-4.8 0-5.8-3.9h0q-1.15 1.6-3.13 2.92Q62.75.6 59.7.6zm1-4h0q1.9 0 3.6-.93 1.7-.92 2.85-2.32h0V-20.6q-1.35-.95-2.98-1.53-1.62-.57-3.42-.57h0q-2.4 0-4.23 1.22-1.82 1.23-2.87 3.41Q52.6-15.9 52.6-13h0q0 2.8 1.05 4.97 1.05 2.18 2.9 3.4Q58.4-3.4 60.7-3.4zm40.94.9l-3.09 3-13.46-13.85V0h-4.5v-37h4.5v21.15L96.84-26.5l2.6 2.85-10.05 8.9L101.64-2.5zM115.79.6h0q-5.6 0-8.87-3.58-3.28-3.57-3.28-10.02h0q0-3.9 1.48-6.98 1.47-3.07 4.12-4.85 2.65-1.77 6.15-1.77h0q3.75 0 6.23 1.62 2.47 1.63 3.72 4.38 1.25 2.75 1.25 6.05h0q0 1.75-.15 3.4h0-18.2q.45 3.65 2.55 5.7 2.1 2.05 5.55 2.05h0q2.25 0 4.05-.48 1.8-.47 3.45-1.22h0l1.05 3.85q-1.8.8-4.05 1.33-2.25.52-5.05.52zm-7.6-15.4h0 14.25q0-3.8-1.9-5.85-1.9-2.05-5.25-2.05h0q-2.9 0-4.8 2.02-1.9 2.03-2.3 5.88zm40.05 26.4h0q-1.5 0-2.63-.3-1.12-.3-1.77-.7h0l1-3.75q.6.35 1.5.6.9.25 2 .25h0q2.1 0 3.75-1.35 1.65-1.35 3.15-5.3h0l1.15-3h-2.4L143.84-24.8l4-1.8 9.7 21.65 7.55-21.45 4.15 1.6-9.55 26.1q-1.45 4-3.15 6.25-1.7 2.25-3.75 3.15-2.05.9-4.55.9zm35.45-11h0q-3.7 0-6.65-1.73-2.95-1.72-4.63-4.8Q170.74-9 170.74-13h0q0-4.2 1.7-7.25 1.7-3.05 4.65-4.7 2.95-1.65 6.6-1.65h0q3.65 0 6.57 1.65 2.93 1.65 4.65 4.67 1.73 3.03 1.73 7.18h0q0 4.15-1.7 7.22-1.7 3.08-4.63 4.78-2.92 1.7-6.62 1.7zm0-4h0q3.95 0 6.15-2.68 2.2-2.67 2.2-6.92h0q0-2.6-1.1-4.78-1.1-2.17-2.98-3.5-1.87-1.32-4.27-1.32h0q-3.95 0-6.15 2.6-2.2 2.6-2.2 6.9h0q0 2.6 1.1 4.82 1.1 2.23 2.97 3.55 1.88 1.33 4.28 1.33zm27.44 4h0q-2.25 0-4.25-.95-2-.95-3.25-3.08-1.25-2.12-1.25-5.67h0V-26h4.5v16.3q0 3.05 1.3 4.67 1.3 1.63 3.8 1.63h0q2.05 0 3.98-.83 1.92-.82 3.42-2.22h0V-26h4.5v19.25q0 2.15.93 2.82.92.68 2.02.68h0l-.95 3.5q-4.65 0-5.75-3.7h0q-1.75 1.8-4.05 2.92Q213.78.6 211.13.6zm26.2-.6h-4.5v-26h4.35v5.65q.65-1.65 1.75-3.08 1.1-1.42 2.75-2.3 1.65-.87 3.85-.87h0q.75 0 1.5.07.75.08 1.25.23h0l-1.35 4.65q-.95-.4-2.25-.4h0q-1.85 0-3.52 1.05-1.68 1.05-2.75 3.25-1.08 2.2-1.08 5.6h0V0zm40.95.6h0q-3.7 0-6.48-1.73-2.77-1.72-4.27-4.8-1.5-3.07-1.5-7.07h0q0-3.75 1.52-6.85 1.53-3.1 4.38-4.93 2.85-1.82 6.7-1.82h0q2.2 0 3.87.4 1.68.4 3.23 1.15h0l-1.35 3.8q-1.4-.7-2.68-1.03-1.27-.32-2.82-.32h0q-3.5 0-5.88 2.52-2.37 2.53-2.37 6.98h0q0 2.7 1 4.9 1 2.2 2.77 3.5 1.78 1.3 4.18 1.3h0q1.9 0 3.25-.43 1.35-.42 2.9-1.22h0l1.4 3.8q-1.55.85-3.48 1.35-1.92.5-4.37.5zm17.59-.6h-4.5v-37h4.5v15.15q1.4-2.05 3.55-3.4 2.15-1.35 5.05-1.35h0q4.4 0 6.58 2.65 2.17 2.65 2.17 7h0V0h-4.5v-16.45q0-2.8-1.3-4.5-1.3-1.7-3.65-1.7h0q-2.3 0-4.37 1.62-2.08 1.63-3.53 3.83h0V0zm35.05.6h0q-3.25 0-5.9-1.65-2.65-1.65-4.22-4.68-1.58-3.02-1.58-7.12h0q0-3.9 1.58-7 1.57-3.1 4.35-4.93 2.77-1.82 6.37-1.82h0q2.25 0 4.08.77 1.82.78 3.17 1.93h0V-26h4.1v19.7q0 1.9.93 2.47.92.58 2.02.58h0l-.95 3.5q-4.8 0-5.8-3.9h0q-1.15 1.6-3.12 2.92Q333.97.6 330.92.6zm1-4h0q1.9 0 3.6-.93 1.7-.92 2.85-2.32h0V-20.6q-1.35-.95-2.97-1.53-1.63-.57-3.43-.57h0q-2.4 0-4.22 1.22-1.83 1.23-2.88 3.41-1.05 2.17-1.05 5.07h0q0 2.8 1.05 4.97 1.05 2.18 2.9 3.4 1.85 1.23 4.15 1.23zm29 4h0q-3.75 0-5.93-2.48-2.17-2.47-2.17-7.07h0v-12.2h-4.5v-3.9h4.6l.95-8.2h3.45v8.2h7.2v3.9h-7.2V-8.6q0 2.9 1.22 4.05 1.23 1.15 2.93 1.15h0q1.25 0 2.37-.4 1.13-.4 2.08-.95h0l1.25 3.6q-1 .6-2.7 1.18-1.7.57-3.55.57zm18.25 0h0q-2.95 0-5.33-.75-2.37-.75-3.92-1.95h0l1.9-3.75q1.3 1.1 3.27 1.82 1.98.73 4.23.73h0q2.8 0 4.22-.93 1.43-.92 1.43-2.37h0q0-1.05-.53-1.85-.52-.8-1.92-1.58-1.4-.77-4.05-1.67h0q-3.65-1.25-5.48-2.98-1.82-1.72-1.82-4.77h0q0-3 2.62-5.08 2.63-2.07 7.28-2.07h0q2.5 0 4.45.52 1.95.53 3.5 1.33h0l-1.25 3.7q-1.35-.8-3.08-1.3-1.72-.5-3.82-.5h0q-2.6 0-3.95 1.05-1.35 1.05-1.35 2.3h0q0 1.2 1.05 2.05 1.05.85 4.1 1.85h0q4.95 1.65 6.9 3.65 1.95 2 1.95 5h0q0 3.5-2.83 5.52Q383.92.6 379.17.6zm41.79 0h0q-5.6 0-8.87-3.58-3.28-3.57-3.28-10.02h0q0-3.9 1.48-6.98 1.47-3.07 4.12-4.85 2.65-1.77 6.15-1.77h0q3.75 0 6.23 1.62 2.47 1.63 3.72 4.38 1.25 2.75 1.25 6.05h0q0 1.75-.15 3.4h0-18.2q.45 3.65 2.55 5.7 2.1 2.05 5.55 2.05h0q2.25 0 4.05-.48 1.8-.47 3.45-1.22h0l1.05 3.85q-1.8.8-4.05 1.33-2.25.52-5.05.52zm-7.6-15.4h0 14.25q0-3.8-1.9-5.85-1.9-2.05-5.25-2.05h0q-2.9 0-4.8 2.02-1.9 2.03-2.3 5.88zM446.86.6h0q-3.75 0-5.93-2.48-2.17-2.47-2.17-7.07h0v-12.2h-4.5v-3.9h4.6l.95-8.2h3.45v8.2h7.2v3.9h-7.2V-8.6q0 2.9 1.22 4.05 1.23 1.15 2.93 1.15h0q1.25 0 2.37-.4 1.13-.4 2.08-.95h0l1.25 3.6q-1 .6-2.7 1.18-1.7.57-3.55.57zm20.15 0h0q-5.6 0-8.88-3.58-3.27-3.57-3.27-10.02h0q0-3.9 1.47-6.98 1.48-3.07 4.13-4.85 2.65-1.77 6.15-1.77h0q3.75 0 6.22 1.62 2.48 1.63 3.73 4.38 1.25 2.75 1.25 6.05h0q0 1.75-.15 3.4h0-18.2q.45 3.65 2.55 5.7 2.1 2.05 5.55 2.05h0q2.25 0 4.05-.48 1.8-.47 3.45-1.22h0l1.05 3.85q-1.8.8-4.05 1.33-2.25.52-5.05.52zm-7.6-15.4h0 14.25q0-3.8-1.9-5.85-1.9-2.05-5.25-2.05h0q-2.9 0-4.8 2.02-1.9 2.03-2.3 5.88zM488.3 0h-4.5v-26h4.35v5.65q.65-1.65 1.75-3.08 1.1-1.42 2.75-2.3 1.65-.87 3.85-.87h0q.75 0 1.5.07.75.08 1.25.23h0l-1.35 4.65q-.95-.4-2.25-.4h0q-1.85 0-3.52 1.05-1.68 1.05-2.75 3.25-1.08 2.2-1.08 5.6h0V0zm19.95 0h-4.5v-26h4.35v4.35q1.4-2.1 3.58-3.53 2.17-1.42 5.17-1.42h0q4.4 0 6.58 2.65 2.17 2.65 2.17 7h0V0h-4.5v-16.45q0-2.8-1.32-4.5-1.33-1.7-3.68-1.7h0q-2.3 0-4.35 1.62-2.05 1.63-3.5 3.83h0V0zm35.05.6h0q-3.25 0-5.9-1.65-2.65-1.65-4.23-4.68-1.57-3.02-1.57-7.12h0q0-3.9 1.57-7 1.58-3.1 4.35-4.93 2.78-1.82 6.38-1.82h0q2.25 0 4.07.77 1.83.78 3.18 1.93h0V-26h4.1v19.7q0 1.9.92 2.47.93.58 2.03.58h0l-.95 3.5q-4.8 0-5.8-3.9h0q-1.15 1.6-3.13 2.92Q546.35.6 543.3.6zm1-4h0q1.9 0 3.6-.93 1.7-.92 2.85-2.32h0V-20.6q-1.35-.95-2.98-1.53-1.62-.57-3.42-.57h0q-2.4 0-4.23 1.22-1.82 1.23-2.87 3.41-1.05 2.17-1.05 5.07h0q0 2.8 1.05 4.97 1.05 2.18 2.9 3.4Q542-3.4 544.3-3.4zm27.8 4h0q-2.3 0-4.15-.88-1.85-.87-2.93-2.82-1.07-1.95-1.07-5.05h0V-37h4.5v28.4q0 2.7 1.12 4 1.13 1.3 3.13 1.3h0q.95 0 1.87-.23.93-.22 1.58-.52h0l1.1 3.65q-.9.4-2.23.7-1.32.3-2.92.3z" fill="inherit"/></svg></svg></g></svg></svg></g><g transform="translate(0 .235)"><svg height="93.929" width="109.743"><svg viewBox="5.389 11.817 89.223 76.366" height="93.929" width="109.743"><path d="M81.495 13.923c-11.368-5.261-26.234-.311-31.489 11.032C44.74 13.612 29.879 8.657 18.511 13.923 6.402 19.539.613 33.883 10.175 50.804c6.792 12.04 18.826 21.111 39.831 37.379 20.993-16.268 33.033-25.344 39.819-37.379 9.562-16.921 3.773-31.265-8.33-36.881"/></svg></svg></g></svg></svg></g></svg></g></svg>